#!OML:ASF \\sashay\E\basketball\basketball\Project 1\Capture day 1\Session 1\Subject.ASF
:FULLY-SPECIFIED
:DEGREES
243
root -27.7511 12.5536 2.52686 -179.672 -45.1652 177.183
lowerback 41.2594 6.41201 -5.99055
upperback 13.3393 1.88213 -2.36517
thorax -4.93022 -0.552761 -0.0569783
lowerneck -8.46909 6.40099 -15.4534
upperneck -20.1379 10.1474 12.3787
head -6.13188 4.90941 6.32391
rclavicle 2.22639e-014 -3.29983e-014
rhumerus -11.693 -20.4864 -78.7881
rradius 47.3005
rwrist -25.3171
rhand -32.9897 40.7676
rfingers 7.12502
rthumb -6.20422 10.8785
lclavicle 2.22639e-014 -3.29983e-014
lhumerus -3.56732 20.9098 67.1224
lradius 55.2841
lwrist 40.8551
lhand -20.1715 22.3542
lfingers 7.12502
lthumb 6.17422 52.2442
rfemur -56.26 -16.9163 5.51522
rtibia 83.0033
rfoot -17.0206 -4.3183
rtoes -40.4508
lfemur -60.1612 27.0571 -14.0011
ltibia 81.2831
lfoot -3.28816 -7.48154
ltoes -31.5189
244
root -27.9057 12.6328 2.55877 -179.13 -44.9936 176.805
lowerback 41.3775 6.68227 -6.51142
upperback 13.3627 1.95873 -2.41314
thorax -4.94276 -0.540991 0.120369
lowerneck -8.57648 6.46793 -15.183
upperneck -20.4017 10.2098 12.2065
head -6.18659 4.91721 6.22575
rclavicle -8.42847e-014 -5.56597e-015
rhumerus -11.6223 -20.1908 -78.7854
rradius 47.6167
rwrist -25.433
rhand -32.8428 41.0339
rfingers 7.12502
rthumb -6.06246 11.1407
lclavicle -8.42847e-014 -5.56597e-015
lhumerus -3.36145 20.5372 67.6279
lradius 55.3601
lwrist 39.9731
lhand -19.786 22.4767
lfingers 7.12502
lthumb 6.54644 52.3555
rfemur -55.6381 -17.1915 4.87883
rtibia 82.1462
rfoot -16.743 -4.31165
rtoes -40.7838
lfemur -60.0498 27.1418 -14.7042
ltibia 81.5951
lfoot -3.27777 -7.81182
ltoes -33.9165
245
root -28.0387 12.6944 2.5909 -179.248 -44.8731 177.894
lowerback 41.336 6.71221 -6.15238
upperback 13.2511 2.19795 -2.24383
thorax -5.06331 -0.401175 0.0282472
lowerneck -8.63498 6.49942 -15.0476
upperneck -20.698 10.2239 12.0014
head -6.25966 4.91449 6.14013
rclavicle 7.07673e-014 -9.22361e-014
rhumerus -11.6816 -19.9375 -78.5777
rradius 48.0302
rwrist -25.7504
rhand -32.8193 40.4879
rfingers 7.12502
rthumb -6.03972 10.594
lclavicle 7.07673e-014 -9.22361e-014
lhumerus -3.06476 19.914 68.1405
lradius 55.2636
lwrist 39.2547
lhand -19.9965 21.6459
lfingers 7.12502
lthumb 6.34323 51.531
rfemur -55.5989 -17.1528 5.57989
rtibia 81.3309
rfoot -16.4186 -4.11681
rtoes -40.1328
lfemur -60.7951 27.45 -14.4188
ltibia 81.9254
lfoot -2.81437 -8.41607
ltoes -34.4395
246
root -28.1907 12.7581 2.61784 -179.016 -44.8602 178.427
lowerback 41.1242 6.66385 -5.96054
upperback 13.208 2.27806 -2.1804
thorax -5.05212 -0.343197 -0.0271749
lowerneck -8.42504 6.61286 -15.0096
upperneck -21.1837 10.3265 11.7158
head -6.45503 4.95873 6.03042
rclavicle 1.74931e-014 -6.55989e-014
rhumerus -11.8021 -19.3106 -78.1115
rradius 48.4273
rwrist -26.3908
rhand -32.6859 39.8153
rfingers 7.12502
rthumb -5.91093 9.91779
lclavicle 1.74931e-014 -6.55989e-014
lhumerus -2.90035 19.2416 68.4681
lradius 55.0838
lwrist 38.7774
lhand -20.0628 20.4377
lfingers 7.12502
lthumb 6.27922 50.3247
rfemur -55.3618 -17.5474 5.80691
rtibia 80.5037
rfoot -16.5242 -3.58245
rtoes -39.6312
lfemur -61.2212 27.5899 -14.5436
ltibia 82.0951
lfoot -2.70644 -9.13128
ltoes -34.5354
247
root -28.3543 12.8286 2.6416 -178.803 -44.7568 178.689
lowerback 40.9838 6.60663 -5.7964
upperback 13.209 2.28673 -2.2742
thorax -5.00441 -0.325947 -0.209003
lowerneck -8.33428 6.73007 -14.9072
upperneck -21.4671 10.4549 11.5317
head -6.56866 5.01267 5.94377
rclavicle -9.06458e-014 -5.28767e-014
rhumerus -11.8728 -18.8349 -77.8564
rradius 48.5969
rwrist -26.804
rhand -32.3894 39.6043
rfingers 7.12502
rthumb -5.62473 9.69892
lclavicle -9.06458e-014 -5.28767e-014
lhumerus -2.89738 18.7699 68.6134
lradius 55.0214
lwrist 38.1285
lhand -19.4651 19.6607
lfingers 7.12502
lthumb 6.85618 49.5297
rfemur -54.7442 -17.9064 5.78942
rtibia 79.5888
rfoot -16.6149 -3.77625
rtoes -40.8712
lfemur -61.0431 27.6328 -14.6645
ltibia 82.0585
lfoot -2.95198 -9.7746
ltoes -32.5117
248
root -28.5105 12.8857 2.6657 -178.584 -44.5782 178.973
lowerback 40.8342 6.55803 -5.53175
upperback 13.1604 2.34604 -2.45505
thorax -5.00425 -0.272551 -0.553009
lowerneck -8.50886 6.77623 -14.7012
upperneck -21.4206 10.519 11.4791
head -6.51916 5.03382 5.89343
rclavicle 1.09729e-013 -1.00187e-013
rhumerus -11.9443 -18.8567 -77.8254
rradius 48.6167
rwrist -26.9987
rhand -32.1609 39.5732
rfingers 7.12502
rthumb -5.40404 9.66215
lclavicle 1.09729e-013 -1.00187e-013
lhumerus -2.99152 18.259 68.6251
lradius 55.161
lwrist 37.6516
lhand -19.1402 19.0606
lfingers 7.12502
lthumb 7.1698 48.9191
rfemur -54.2709 -17.907 5.76017
rtibia 78.7638
rfoot -16.3708 -4.41248
rtoes -41.8861
lfemur -60.7671 27.6745 -14.629
ltibia 81.8211
lfoot -3.34921 -10.5425
ltoes -28.5181
249
root -28.6649 12.9322 2.68756 -178.317 -44.4345 179.074
lowerback 40.7287 6.56836 -5.4296
upperback 13.0801 2.42776 -2.51355
thorax -5.05908 -0.214854 -0.695744
lowerneck -8.35225 6.84821 -14.5197
upperneck -21.6415 10.5504 11.138
head -6.59756 5.04736 5.74151
rclavicle 3.73715e-014 7.55382e-015
rhumerus -12.1547 -18.8508 -77.541
rradius 48.7419
rwrist -27.1916
rhand -31.9692 39.319
rfingers 7.12502
rthumb -5.21901 9.40323
lclavicle 3.73715e-014 7.55382e-015
lhumerus -3.31934 17.7851 68.707
lradius 55.4385
lwrist 37.3665
lhand -19.3015 18.5466
lfingers 7.12502
lthumb 7.01408 48.4104
rfemur -53.7596 -17.5847 5.44941
rtibia 78.0311
rfoot -16.0074 -5.0983
rtoes -41.8436
lfemur -60.1594 27.4921 -14.5686
ltibia 81.2979
lfoot -4.33763 -11.5568
ltoes -26.6988
250
root -28.821 12.9774 2.70457 -178.049 -44.2374 179.167
lowerback 40.4712 6.61812 -5.45402
upperback 13.0264 2.5366 -2.48178
thorax -5.04581 -0.151525 -0.685628
lowerneck -7.9027 6.99035 -14.3787
upperneck -22.1675 10.6185 10.5474
head -6.82316 5.08566 5.50136
rclavicle 1.51076e-014 8.74653e-014
rhumerus -12.4505 -18.7194 -77.1088
rradius 48.9101
rwrist -27.3339
rhand -31.8225 38.897
rfingers 7.12502
rthumb -5.07731 8.9778
lclavicle 1.51076e-014 8.74653e-014
lhumerus -3.78527 17.5362 68.8453
lradius 55.6676
lwrist 36.9024
lhand -19.4382 18.1864
lfingers 7.12502
lthumb 6.88213 48.0546
rfemur -53.2135 -16.9796 5.04611
rtibia 77.334
rfoot -15.6817 -5.86708
rtoes -41.7286
lfemur -59.2935 27.2051 -14.4053
ltibia 80.5929
lfoot -5.74473 -12.6656
ltoes -25.6832
251
root -28.9732 13.0484 2.72592 -177.805 -44.0097 179.389
lowerback 40.1521 6.59685 -5.33809
upperback 12.9396 2.62431 -2.50813
thorax -5.04431 -0.0862913 -0.797919
lowerneck -7.66806 7.11763 -14.4319
upperneck -22.4681 10.7343 10.2387
head -6.96944 5.15697 5.39074
rclavicle 3.81667e-014 -3.29983e-014
rhumerus -12.7718 -18.6078 -76.7326
rradius 48.9845
rwrist -27.5491
rhand -31.8546 38.4824
rfingers 7.12502
rthumb -5.10835 8.56392
lclavicle 3.81667e-014 -3.29983e-014
lhumerus -4.31987 17.195 68.8207
lradius 55.7269
lwrist 36.3875
lhand -19.7785 17.4963
lfingers 7.12502
lthumb 6.5536 47.3749
rfemur -52.9025 -18.383 5.33123
rtibia 76.6043
rfoot -15.7842 -5.1172
rtoes -41.6291
lfemur -58.2853 26.9061 -14.2401
ltibia 79.752
lfoot -6.94944 -13.6278
ltoes -23.5934
